<?xml version="1.0" standalone="no"?>
<!DOCTYPE svg PUBLIC "-//W3C//DTD SVG 20010904//EN"
 "http://www.w3.org/TR/2001/REC-SVG-20010904/DTD/svg10.dtd">
<svg version="1.0" xmlns="http://www.w3.org/2000/svg"
 width="312.000000pt" height="312.000000pt" viewBox="0 0 312.000000 312.000000"
 preserveAspectRatio="xMidYMid meet">

<g transform="translate(0.000000,312.000000) scale(0.100000,-0.100000)"
fill="#05164d" stroke="none">
<path d="M1385 2939 c-93 -78 -171 -142 -172 -143 -1 -1 9 -98 22 -216 19
-160 25 -268 25 -425 l0 -209 -367 366 c-342 339 -372 367 -426 387 -120 44
-244 19 -341 -70 -75 -68 -101 -129 -101 -239 0 -125 17 -155 182 -321 128
-130 134 -138 108 -141 -15 -2 -32 -10 -36 -18 -5 -8 -67 -213 -138 -455 -71
-242 -132 -448 -136 -457 -7 -17 3 -18 129 -18 l136 0 0 -470 0 -470 1318 0
1317 0 0 467 0 468 106 5 105 5 -104 435 -105 435 -6 370 c-7 416 -5 407 -85
463 l-39 27 -306 3 c-301 3 -307 2 -351 -20 -26 -14 -57 -41 -75 -66 l-30 -44
-3 -329 -3 -329 -74 0 -75 0 0 198 c0 147 7 257 26 430 14 129 22 238 18 242
-34 32 -337 280 -342 280 -4 0 -83 -64 -177 -141z m125 -103 c0 -73 -1 -75
-30 -93 -44 -26 -74 -92 -65 -145 14 -80 107 -140 185 -118 120 34 148 196 46
262 -36 23 -36 23 -36 96 0 39 2 72 5 72 3 0 48 -36 100 -80 l94 -80 -6 -58
c-4 -31 -13 -115 -22 -187 l-16 -130 -202 -3 -203 -2 -4 22 c-8 37 -36 300
-36 333 0 27 13 42 93 108 50 42 93 77 95 77 1 0 2 -33 2 -74z m88 -178 c25
-25 1 -88 -35 -88 -17 0 -53 36 -53 54 0 37 61 61 88 34z m-1153 -57 c22 -10
53 -33 70 -50 l29 -32 -162 -161 -161 -162 -31 29 c-149 143 -47 395 160 395
32 0 71 -8 95 -19z m2328 -7 c29 -29 40 -69 35 -129 l-3 -40 -347 -3 -348 -2
0 71 c0 65 2 73 29 100 l29 29 290 0 289 0 26 -26z m-2240 -386 l-163 -162
-40 39 -40 39 162 163 163 163 40 -40 40 -40 -162 -162z m2275 -80 l2 -198
-89 0 -89 0 15 43 c29 81 -16 186 -97 227 -46 23 -125 26 -173 6 -41 -17 -91
-74 -107 -121 -12 -36 -10 -102 5 -137 6 -16 -1 -18 -79 -18 l-86 0 0 193 c0
107 3 197 7 200 4 4 160 6 347 5 l341 -3 3 -197z m-1800 -196 l-122 -3 -123
123 -123 123 62 62 63 63 182 -182 183 -183 -122 -3z m752 173 l0 -175 -200 0
-200 0 0 168 c0 93 3 172 7 175 3 4 93 7 200 7 l193 0 0 -175z m756 0 c11 -8
27 -27 34 -44 40 -98 -85 -177 -161 -102 -38 38 -39 87 -4 130 36 42 81 47
131 16z m-1856 -90 l85 -85 -130 0 c-119 0 -131 2 -152 22 l-24 22 63 63 c34
35 65 63 68 63 3 0 43 -38 90 -85z m1277 -207 c-4 -13 -52 -182 -109 -375
l-103 -353 -792 0 c-508 0 -793 3 -793 10 0 13 208 719 215 731 4 5 309 9 797
9 l790 0 -5 -22z m878 13 c5 -10 175 -719 175 -733 0 -5 -167 -7 -372 -6
l-372 3 -86 368 c-48 202 -84 369 -82 372 10 9 731 5 737 -4z m-855 -1001 l0
-690 -795 0 -795 0 0 425 0 425 714 0 713 0 53 178 c98 332 104 352 107 352 2
0 3 -310 3 -690z m155 395 c25 -110 48 -208 51 -217 5 -17 29 -18 325 -18
l319 0 -2 -422 -3 -423 -372 -3 -373 -2 0 647 c0 355 2 644 4 642 3 -2 25 -94
51 -204z"/>
<path d="M1312 283 l3 -48 48 -3 47 -3 0 50 0 51 -51 0 -50 0 3 -47z"/>
<path d="M1512 283 l3 -48 48 -3 47 -3 0 50 0 51 -51 0 -50 0 3 -47z"/>
<path d="M1712 283 l3 -48 48 -3 47 -3 0 50 0 51 -51 0 -50 0 3 -47z"/>
</g>
</svg>
